<svg width="65" height="65" viewBox="0 0 65 65" fill="none" xmlns="http://www.w3.org/2000/svg">
<path fill-rule="evenodd" clip-rule="evenodd" d="M32.5 65C14.5507 65 0 50.4493 0 32.5C0 14.5507 14.5507 0 32.5 0C50.4493 0 65 14.5507 65 32.5C65 50.4493 50.4493 65 32.5 65ZM32.5 59.0909C47.1858 59.0909 59.0909 47.1858 59.0909 32.5C59.0909 17.8142 47.1858 5.90909 32.5 5.90909C17.8142 5.90909 5.90909 17.8142 5.90909 32.5C5.90909 47.1858 17.8142 59.0909 32.5 59.0909ZM32.5 58C46.5833 58 58 46.5833 58 32.5C58 18.4167 46.5833 7 32.5 7C18.4167 7 7 18.4167 7 32.5C7 46.5833 18.4167 58 32.5 58Z" fill="white"/>
</svg>
