<svg width="36" height="33" viewBox="0 0 36 33" fill="none" xmlns="http://www.w3.org/2000/svg">
<path d="M12.6 0C10.611 0 9 1.611 9 3.6V5.4H3.6C1.611 5.4 0 7.011 0 9V28.8C0 30.789 1.611 32.4 3.6 32.4H32.4C34.389 32.4 36 30.789 36 28.8V9C36 7.011 34.389 5.4 32.4 5.4H27V3.6C27 1.611 25.389 0 23.4 0H12.6ZM18 9C22.9626 9 27 13.0374 27 18C27 22.9626 22.9626 27 18 27C13.0374 27 9 22.9626 9 18C9 13.0374 13.0374 9 18 9ZM30.6 9C31.5936 9 32.4 9.8064 32.4 10.8C32.4 11.7936 31.5936 12.6 30.6 12.6C29.6064 12.6 28.8 11.7936 28.8 10.8C28.8 9.8064 29.6064 9 30.6 9ZM18 12.6C16.5678 12.6 15.1943 13.1689 14.1816 14.1816C13.1689 15.1943 12.6 16.5678 12.6 18C12.6 19.4322 13.1689 20.8057 14.1816 21.8184C15.1943 22.8311 16.5678 23.4 18 23.4C19.4322 23.4 20.8057 22.8311 21.8184 21.8184C22.8311 20.8057 23.4 19.4322 23.4 18C23.4 16.5678 22.8311 15.1943 21.8184 14.1816C20.8057 13.1689 19.4322 12.6 18 12.6Z" fill="white"/>
</svg>
