<svg width="28" height="28" viewBox="0 0 28 28" fill="none" xmlns="http://www.w3.org/2000/svg">
<path d="M7.18861 19.0508C6.81947 19.4199 6.80189 20.0791 7.1974 20.4658C7.58412 20.8526 8.2433 20.8438 8.61244 20.4746L13.9913 15.0869L19.379 20.4746C19.757 20.8526 20.4074 20.8526 20.7941 20.4658C21.172 20.0703 21.1808 19.4287 20.7941 19.0508L15.4152 13.6631L20.7941 8.28419C21.1808 7.90626 21.1808 7.25587 20.7941 6.86915C20.3986 6.49122 19.757 6.48243 19.379 6.86036L13.9913 12.2481L8.61244 6.86036C8.2433 6.49122 7.57533 6.47364 7.1974 6.86915C6.81068 7.25587 6.81947 7.91505 7.18861 8.28419L12.5763 13.6631L7.18861 19.0508Z" fill="white"/>
</svg>
