<svg width="20" height="34" viewBox="0 0 20 34" fill="none" xmlns="http://www.w3.org/2000/svg">
<path fill-rule="evenodd" clip-rule="evenodd" d="M8.97661 19.1086L4.29308 33.557C4.23571 33.734 4.33034 33.9247 4.50443 33.983C4.63182 34.0257 4.77195 33.9862 4.85958 33.883L19.7984 16.2859C20.0978 15.9332 20.0593 15.4006 19.7123 15.0963C19.5617 14.9641 19.3693 14.8914 19.1702 14.8914H11.0234L15.7069 0.442985C15.7643 0.266013 15.6697 0.0752766 15.4956 0.0169625C15.3682 -0.0257065 15.228 0.0137562 15.1404 0.116976L0.20158 17.7141C-0.0978123 18.0668 -0.0592705 18.5994 0.287665 18.9037C0.438342 19.0359 0.630737 19.1086 0.829762 19.1086H8.97661Z" fill="white"/>
</svg>
