<svg width="40" height="40" viewBox="0 0 40 40" fill="none" xmlns="http://www.w3.org/2000/svg">
<path d="M13.0734 33.2743C13.7514 33.2743 14.1909 32.9227 15.2581 31.8806L20.1046 27.0843C20.1549 27.0215 20.2679 27.0215 20.3181 27.0843L25.1772 31.8806C26.2444 32.9227 26.6713 33.2743 27.3619 33.2743C28.3664 33.2743 28.9942 32.5837 28.9942 31.4537V9.53126C28.9942 7.03265 27.6884 5.71429 25.2149 5.71429H15.2079C12.7344 5.71429 11.4286 7.03265 11.4286 9.53126V31.4537C11.4286 32.5837 12.0564 33.2743 13.0734 33.2743ZM14.2662 29.1434C14.103 29.3066 13.9021 29.2564 13.9021 29.0179V9.69448C13.9021 8.69002 14.4043 8.20034 15.4088 8.20034H25.014C26.0184 8.20034 26.5207 8.69002 26.5207 9.69448V29.0179C26.5207 29.2564 26.3323 29.3066 26.1565 29.1434L21.0463 24.1964C20.519 23.6691 19.9163 23.6691 19.3764 24.1964L14.2662 29.1434Z" fill="#2B2D33"/>
</svg>
