<svg width="40" height="40" viewBox="0 0 40 40" fill="none" xmlns="http://www.w3.org/2000/svg">
<path d="M4.28571 19.8336C4.28571 20.4865 4.78794 21.0515 5.59151 21.0515C5.98074 21.0515 6.3323 20.8381 6.6462 20.587L8.07756 19.3816V31.0585C8.07756 32.9168 9.19503 34.0217 11.1161 34.0217H28.1041C30.0126 34.0217 31.1426 32.9168 31.1426 31.0585V19.3188L32.6493 20.587C32.9506 20.8381 33.3022 21.0515 33.6914 21.0515C34.4322 21.0515 34.9972 20.587 34.9972 19.8587C34.9972 19.4318 34.834 19.0928 34.5075 18.8166L31.1426 15.979V10.6302C31.1426 10.0652 30.7785 9.71365 30.2134 9.71365H28.4807C27.9283 9.71365 27.5516 10.0652 27.5516 10.6302V12.9656L21.4369 7.83028C20.3446 6.91371 18.9634 6.91371 17.8711 7.83028L4.78794 18.8166C4.44893 19.0928 4.28571 19.4695 4.28571 19.8336ZM23.2575 23.299C23.2575 22.7089 22.8809 22.3322 22.2907 22.3322H17.0173C16.4272 22.3322 16.0379 22.7089 16.0379 23.299V31.5231H11.7815C11.0031 31.5231 10.5762 31.0836 10.5762 30.2926V17.2848L19.1016 10.128C19.4531 9.82666 19.8549 9.82666 20.2065 10.128L28.6314 17.2095V30.2926C28.6314 31.0836 28.2045 31.5231 27.4261 31.5231H23.2575V23.299Z" fill="#2B2D33"/>
</svg>
